<svg height="511pt" viewBox="-53 0 511 511.99973" width="511pt" xmlns="http://www.w3.org/2000/svg"><path d="m362.316406 342.464844c-100.191406-50.859375-218.636718-50.859375-318.824218 0-21.773438 11.054687-35.492188 33.398437-35.492188 57.816406v94.25c0 5.488281 4.453125 9.941406 9.941406 9.941406h369.925782c5.488281 0 9.941406-4.453125 9.941406-9.941406v-94.25c-.003906-24.417969-13.722656-46.765625-35.492188-57.816406zm0 0" fill="#d7dee3"/><path d="m362.316406 342.464844c-8.554687-4.339844-17.246094-8.285156-26.042968-11.882813v56.25c9.210937 11.265625 14.503906 25.550781 14.503906 40.640625v77h37.085937c5.492188 0 9.941407-4.449218 9.941407-9.941406v-94.25c0-24.417969-13.71875-46.765625-35.488282-57.816406zm0 0" fill="#ccd2d6"/><g fill="#fed6a6"><path d="m202.914062 333.464844 41.921876-36.453125v-64.550781h-83.867188v64.53125zm0 0"/><path d="m114.171875 113.992188h-15.246094c-12.9375 0-23.414062 10.492187-23.414062 23.429687v11.082031c0 12.9375 10.476562 23.425782 23.414062 23.425782h15.246094zm0 0"/><path d="m291.632812 113.992188h15.25c12.9375 0 23.410157 10.492187 23.410157 23.429687v11.082031c0 12.9375-10.472657 23.425782-23.410157 23.425782h-15.25zm0 0"/></g><path d="m202.902344 10.382812c-54.574219.027344-98.777344 44.332032-98.671875 98.910157l.144531 77.945312c0 61.09375 68.800781 90.742188 98.527344 91.292969 29.726562-.550781 98.527344-30.199219 98.527344-91.292969l.148437-77.945312c.105469-54.582031-44.101563-98.882813-98.675781-98.910157zm0 0" fill="#ffe3c2"/><path d="m252.019531 23.476562-.125 163.757813c0 47.355469-41.328125 75.808594-73.761719 86.476563 9.414063 3.09375 18.082032 4.695312 24.769532 4.820312 29.726562-.554688 98.527344-30.199219 98.527344-91.296875l.144531-77.941406c.074219-36.695313-19.882813-68.742188-49.554688-85.816407zm0 0" fill="#fed6a6"/><path d="m336.273438 330.558594c-16.332032-6.683594-33.042969-12.09375-49.992188-16.222656l-77.710938 109.300781c-3.695312 5.199219-11.441406 5.125-15.039062-.144531l-74.417969-109.054688c-16.804687 4.117188-33.378906 9.492188-49.578125 16.121094v173.910156h266.738282zm0 0" fill="#d08f61"/><path d="m336.273438 330.558594c-2.019532-.828125-4.046876-1.632813-6.082032-2.421875-.039062-.015625-.078125-.03125-.117187-.046875-8.167969-3.164063-16.421875-6.011719-24.75-8.542969-.0625-.015625-.121094-.035156-.183594-.054687-6.246094-1.894532-12.535156-3.617188-18.859375-5.15625l-24.164062 33.988281c18.140624 5.738281 35.925781 12.96875 53.171874 21.722656 8.253907 4.128906 15.347657 9.894531 20.984376 16.78125zm0 0" fill="#c67f4f"/><path d="m298.082031 26.800781c-37.625-30.746093-81.433593-15.488281-81.433593-15.488281 68.191406 18.539062 84.925781 102.609375 84.925781 102.609375s16.941406 1.363281 22.753906-14.078125c6.601563-17.523438-2.851563-53.925781-26.246094-73.042969zm0 0" fill="#ccd2d6"/><path d="m107.726562 26.800781c37.625-30.746093 81.433594-15.488281 81.433594-15.488281-68.191406 18.539062-84.925781 102.609375-84.925781 102.609375s-16.941406 1.363281-22.753906-14.078125c-6.601563-17.523438 2.851562-53.925781 26.246093-73.042969zm0 0" fill="#d7dee3"/><path d="m202.902344 278.53125c-1.589844-.027344-3.296875-.144531-5.09375-.34375v29.875c0 8.488281 3.472656 16.25 9.167968 21.871094l37.859376-32.921875v-30.335938c-15.6875 7.742188-31.304688 11.660157-41.933594 11.855469zm0 0" fill="#efc79c"/><path d="m252.847656 361.363281 33.433594-47.023437-24.148438-18.898438c-4.902343-3.609375-11.652343-3.335937-16.246093.65625l-42.984375 37.378906 44.367187 26.953126c1.730469 1.050781 3.726563 1.332031 5.578125.933593zm0 0" fill="#b2b9bf"/><path d="m262.144531 348.289062 24.128907-33.957031-24.140626-18.890625c-4.902343-3.609375-11.652343-3.335937-16.246093.65625l-38.910157 33.835938c4.261719 4.207031 9.765626 7.214844 16.003907 8.421875 13.179687 2.558593 26.25 5.886719 39.140625 9.96875zm0 0" fill="#a0a9af"/><path d="m158.558594 360.429688 44.367187-26.953126-42.984375-37.378906c-4.59375-3.996094-11.34375-4.269531-16.246094-.65625l-24.582031 18.996094 31.28125 45.84375c2.398438 1.578125 5.574219 1.71875 8.164063.148438zm0 0" fill="#b2b9bf"/><path d="m200.945312 151.71875c-4.140624 0-7.496093 3.355469-7.496093 7.5v22.019531c0 6.042969 4.917969 10.960938 10.960937 10.960938h7.253906c4.144532 0 7.5-3.355469 7.5-7.5 0-4.140625-3.355468-7.496094-7.5-7.496094h-3.21875v-17.984375c0-4.144531-3.355468-7.5-7.5-7.5zm0 0"/><path d="m165.96875 210.152344c-3.503906 2.214844-4.542969 6.847656-2.328125 10.347656 7.605469 12.019531 22.648437 19.488281 39.265625 19.488281 16.613281 0 31.660156-7.46875 39.265625-19.488281 2.214844-3.5 1.171875-8.132812-2.324219-10.347656-3.5-2.210938-8.132812-1.171875-10.351562 2.328125-4.804688 7.597656-15.246094 12.507812-26.589844 12.507812-11.347656 0-21.785156-4.910156-26.59375-12.507812-2.214844-3.5-6.847656-4.539063-10.34375-2.328125zm0 0"/><path d="m245.816406 148.769531c0 4.140625 3.355469 7.496094 7.5 7.496094 4.140625 0 7.496094-3.355469 7.496094-7.496094v-10.035156c0-4.140625-3.355469-7.5-7.496094-7.5-4.144531 0-7.5 3.359375-7.5 7.5zm0 0"/><path d="m152.492188 131.234375c-4.144532 0-7.5 3.359375-7.5 7.5v10.035156c0 4.140625 3.355468 7.496094 7.5 7.496094 4.140624 0 7.496093-3.355469 7.496093-7.496094v-10.035156c0-4.140625-3.355469-7.5-7.496093-7.5zm0 0"/><path d="m241.78125 66.011719h-77.757812c-4.140626 0-7.5 3.359375-7.5 7.5s3.359374 7.5 7.5 7.5h77.757812c4.144531 0 7.5-3.359375 7.5-7.5s-3.359375-7.5-7.5-7.5zm0 0"/><path d="m232.125 100.386719c0-4.140625-3.355469-7.5-7.5-7.5h-43.445312c-4.144532 0-7.5 3.359375-7.5 7.5s3.355468 7.5 7.5 7.5h43.445312c4.144531 0 7.5-3.359375 7.5-7.5zm0 0"/><path d="m365.707031 335.808594c-8.515625-4.324219-59.261719-24.164063-76.070312-28.339844l-22.882813-17.902344c-.058594-.046875-.113281-.089844-.171875-.132812-4.253906-3.132813-9.328125-4.429688-14.246093-3.921875v-14.222657c5.191406-2.78125 10.363281-5.976562 15.371093-9.59375 18.804688-13.59375 41.222657-37.539062 41.222657-74.417968l.015624-7.886719c16.085938-1.066406 28.847657-14.5 28.847657-30.859375v-11.082031c0-10.246094-5.003907-19.34375-12.699219-24.976563 2.527344-2.589844 4.707031-5.859375 6.253906-9.957031 3.941406-10.46875 3.296875-25.375-1.765625-40.894531-5.375-16.472656-14.875-30.890625-26.757812-40.601563-36.554688-29.867187-77.914063-19.96875-86.917969-17.304687-4.320312-.53125-8.683594-.800782-13.007812-.800782-4.3125 0-8.675782.269532-13 .800782-9.003907-2.664063-50.363282-12.5625-86.917969 17.308594-11.878907 9.707031-21.382813 24.125-26.753907 40.597656-5.0625 15.523437-5.707031 30.425781-1.765624 40.894531 1.542968 4.097656 3.726562 7.367187 6.25 9.957031-7.691407 5.632813-12.699219 14.730469-12.699219 24.976563v11.082031c0 16.359375 12.761719 29.792969 28.847656 30.859375l.015625 7.875c0 36.890625 22.417969 60.835937 41.222656 74.429687 5.007813 3.621094 10.179688 6.8125 15.371094 9.59375v14.21875c-4.910156-.5-9.976562.796876-14.222656 3.925782-.046875.035156-.09375.066406-.136719.105468l-23.332031 18.027344c-16.675782 4.164063-67.175782 23.921875-75.683594 28.242188-24.421875 12.398437-39.59375 37.113281-39.59375 64.503906v94.25c0 9.613281 7.824219 17.4375 17.4375 17.4375h369.925781c9.617188 0 17.441407-7.824219 17.441407-17.4375v-94.25c0-27.390625-15.171876-52.105469-39.597657-64.503906zm-108.09375-34.351563 18.40625 14.402344-26.460937 37.214844-33.984375-20.648438 35.230469-30.640625c1.9375-1.683594 4.726562-1.816406 6.808593-.328125zm-16.769531 63.875-38.300781 53.867188c-.441407.625-1.054688.746093-1.457031.746093-.421876-.003906-1.015626-.140624-1.445313-.773437l-36.128906-52.949219 39.402343-23.9375zm-72.375-71.730469v-15.375c13.078125 5.140626 25.339844 7.664063 34.292969 7.832032h.140625.140625c8.953125-.167969 21.214843-2.691406 34.292969-7.832032v15.398438l-34.421876 29.933594zm154.328125-145.070312c0 8.074219-6.035156 14.765625-13.824219 15.792969l.082032-42.65625c7.75 1.0625 13.742187 7.734375 13.742187 15.78125zm-29.460937-115.894531c21.425781 17.507812 29.191406 50.734375 23.976562 64.59375-2.105469 5.589843-6.460938 7.828125-9.976562 8.710937-2.257813-8.3125-7.136719-23.527344-16.066407-39.929687-12.328125-22.636719-28.324219-39.914063-47.054687-51.035157 14.125.179688 32.253906 3.878907 49.121094 17.660157zm-210.324219 115.894531v-11.082031c0-8.042969 5.988281-14.714844 13.742187-15.777344l.078125 42.652344c-7.789062-1.027344-13.820312-7.71875-13.820312-15.792969zm5.484375-51.300781c-5.21875-13.859375 2.550781-47.085938 23.976562-64.59375 16.871094-13.785157 34.996094-17.484375 49.121094-17.660157-18.730469 11.121094-34.726562 28.394532-47.054688 51.035157-8.925781 16.386719-13.800781 31.589843-16.0625 39.90625-3.507812-.890625-7.886718-3.132813-9.980468-8.6875zm23.378906 90.019531-.136719-72.527344c1.761719-7.824218 19.425781-79.328125 78.703125-95.953125 4.140625-.566406 8.328125-.855469 12.460938-.859375 4.140625.003906 8.332031.292969 12.46875.859375 59.105468 16.582031 76.917968 88.113281 78.699218 95.953125l-.136718 72.542969c0 56.75-65.816406 83.234375-91.027344 83.796875-25.214844-.5625-91.03125-27.046875-91.03125-83.8125zm36.324219 114.21875c2.085937-1.5 4.882812-1.371094 6.824219.316406l35.230468 30.640625-35.210937 21.394531-25.75-37.742187zm242.109375 193.09375c0 1.34375-1.097656 2.4375-2.441406 2.4375h-44.09375v-22.90625c0-4.144531-3.359376-7.5-7.5-7.5-4.144532 0-7.5 3.355469-7.5 7.5v22.90625h-251.742188v-96.28125c0-4.140625-3.355469-7.5-7.5-7.5-4.140625 0-7.496094 3.359375-7.496094 7.5v96.28125h-44.09375c-1.347656 0-2.441406-1.09375-2.441406-2.4375v-94.253906c0-21.707032 12.027344-41.300782 31.386719-51.128906 4.9375-2.507813 10.003906-4.921876 15.148437-7.222657v23.847657c0 4.140624 3.355469 7.5 7.496094 7.5 4.144531 0 7.5-3.359376 7.5-7.5v-30.144532c12.660156-4.964844 25.6875-9.203125 38.839844-12.636718l71.382812 104.605468c3.089844 4.527344 8.207032 7.261719 13.6875 7.3125.054688.003906.105469.003906.160156.003906 5.421876 0 10.519532-2.628906 13.667969-7.054687l74.652344-105c13.328125 3.457031 26.523437 7.738281 39.351563 12.769531v103.515625c0 4.140625 3.355468 7.5 7.5 7.5 4.140624 0 7.496093-3.359375 7.496093-7.5v-97.21875c5.140625 2.296875 10.207031 4.714844 15.152344 7.222657 19.355469 9.828124 31.382813 29.421874 31.382813 51.128906v94.253906zm0 0"/></svg>